<?xml version="1.0" encoding="UTF-8" standalone="no"?>
<!--
  From iron-icons, with color set to paper-pink-500

  License:
  Copyright (c) 2014 The Polymer Project Authors. All rights reserved.

  This code may only be used under the BSD style license found at
  http://polymer.github.io/LICENSE.txt The complete set of authors may be found at
  http://polymer.github.io/AUTHORS.txt The complete set of contributors may be
  found at http://polymer.github.io/CONTRIBUTORS.txt Code distributed by Google as
  part of the polymer project is also subject to an additional IP rights grant
  found at http://polymer.github.io/PATENTS.txt
-->
<svg xmlns="http://www.w3.org/2000/svg" width="48" height="48" viewBox="0 0 24 24">
  <g>
    <defs>
      <style type="text/css"><![CDATA[
        #extension {
          fill: #e91e63;
        }
        ]]></style>
    </defs>
    <path id="extension" fill="#e91e63" d="M20.5 11H19V7c0-1.1-.9-2-2-2h-4V3.5C13 2.12 11.88 1 10.5 1S8 2.12 8 3.5V5H4c-1.1 0-1.99.9-1.99 2v3.8H3.5c1.49 0 2.7 1.21 2.7 2.7s-1.21 2.7-2.7 2.7H2V20c0 1.1.9 2 2 2h3.8v-1.5c0-1.49 1.21-2.7 2.7-2.7 1.49 0 2.7 1.21 2.7 2.7V22H17c1.1 0 2-.9 2-2v-4h1.5c1.38 0 2.5-1.12 2.5-2.5S21.88 11 20.5 11z"></path>
  </g>
</svg>